inDegrees=yes
name=ik_S56_A12_T02
DataType=double
version=3
OpenSimVersion=4.3-2021-08-27-4bc7ad9
endheader
time	pelvis_tilt	pelvis_list	pelvis_rotation	pelvis_tx	pelvis_ty	pelvis_tz	hip_flexion_r	hip_adduction_r	hip_rotation_r	knee_angle_r	knee_angle_r_beta	ankle_angle_r	subtalar_angle_r	mtp_angle_r	hip_flexion_l	hip_adduction_l	hip_rotation_l	knee_angle_l	knee_angle_l_beta	ankle_angle_l	subtalar_angle_l	mtp_angle_l	lumbar_extension	lumbar_bending	lumbar_rotation	arm_flex_r	arm_add_r	arm_rot_r	elbow_flex_r	pro_sup_r	wrist_flex_r	wrist_dev_r	arm_flex_l	arm_add_l	arm_rot_l	elbow_flex_l	pro_sup_l	wrist_flex_l	wrist_dev_l
12.65999999999982	-3.01561276484121	0.8677958699835007	36.74775378543394	0	0.9399999999999999	0	32.8642984532251	-9.60112761111702	-9.013391094022577	37.67620843497075	0.6575738868578995	0	0	0	32.8642984532251	-9.60112761111702	-9.013391094022577	37.67620843497075	0.6575738868578995	0	0	0	-2.251197176585759	2.761681262934904	0.5491971129416243	6.444415501704696	-9.74143455100517	-4.940069603107538	5.474351044653364	119.0698108153669	0	0	89.37263404990928	-6.689402027237931	26.85197516516629	53.42791942090012	39.18271905070547	0	0
12.67999999999982	-2.926072160982994	0.7763617080762407	37.27953163145772	0	0.9399999999999999	0	32.87224931186807	-9.60201797202132	-9.014803638331212	37.68415848700496	0.6577126414416014	0	0	0	32.87224931186807	-9.60201797202132	-9.014803638331212	37.68415848700496	0.6577126414416014	0	0	0	-2.233057521689622	2.635623164353879	0.4273456007813971	6.630672086451636	-9.582986473491056	-4.993501383862589	5.480782821039764	118.9245889117235	0	0	86.52878734967747	-7.62966788651396	26.27690097901171	55.55892684940702	40.03076436170161	0	0
12.69999999999982	-2.845773885594071	0.6957937213777069	37.78924159078203	0	0.9399999999999999	0	32.87802698677509	-9.602662942324271	-9.015828237002314	37.6899458373978	0.6578136497609229	0	0	0	32.87802698677509	-9.602662942324271	-9.015828237002314	37.6899458373978	0.6578136497609229	0	0	0	-2.219050354632346	2.529322714619046	0.307369747088891	6.561293961009922	-9.389500769941879	-5.413632428632242	5.469103878831094	118.9250091101809	0	0	83.49786117649936	-8.70654944027477	25.92152441380937	57.06128710707343	40.74029068146655	0	0
12.71999999999982	-2.77340517964307	0.611269704747471	38.31045651630812	0	0.9399999999999999	0	32.88413384013805	-9.603344302968811	-9.016911045735243	37.69606033241839	0.6579203678311291	0	0	0	32.88413384013805	-9.603344302968811	-9.016911045735243	37.69606033241839	0.6579203678311291	0	0	0	-2.2142236446569	2.424399956465114	0.1088837810161071	6.808303602058903	-9.247798329744349	-5.420853382308818	5.514987989683027	118.7602271872189	0	0	80.2761805644445	-9.932905720321958	25.54012452936014	58.42491554187409	41.61071674017873	0	0
12.73999999999982	-2.692283101105045	0.5183422447427559	38.77737729121835	0	0.9399999999999999	0	32.8887130755304	-9.603853467066433	-9.017721331116487	37.70065559206471	0.6580005702419415	0	0	0	32.8887130755304	-9.603853467066433	-9.017721331116487	37.70065559206471	0.6580005702419415	0	0	0	-2.208863325132471	2.309008887139726	-0.09214459502347876	6.787157690172963	-9.025025572227412	-5.702572752291992	5.882243453915322	118.8194578129241	0	0	77.10782184849718	-11.1236248052846	25.26261076205991	59.37178585863293	43.22218022555412	0	0
12.75999999999982	-2.602262518229138	0.4645620989687606	39.29726221476469	0	0.9399999999999999	0	32.89700899528967	-9.604777849737356	-9.019191597246881	37.70895631732393	0.6581454452280182	0	0	0	32.89700899528967	-9.604777849737356	-9.019191597246881	37.70895631732393	0.6581454452280182	0	0	0	-2.17359158835487	2.214740964361261	-0.325006066281902	7.187022375509449	-9.115480927736225	-5.625775664549805	5.899180907730689	118.5272673052231	0	0	73.96697815281497	-12.19418903509935	25.13620212337224	59.85332737888835	45.33679194339302	0	0
12.77999999999982	-2.508651654020217	0.3786611911880487	39.84980802242932	0	0.9399999999999999	0	32.90427436832379	-9.605585546093728	-9.020477630037188	37.71623227646058	0.6582724346711933	0	0	0	32.90427436832379	-9.605585546093728	-9.020477630037188	37.71623227646058	0.6582724346711933	0	0	0	-2.155527692039796	2.088615118882231	-0.4707318551120276	7.346214034901343	-9.029431822608053	-5.963868722422945	6.133941402953996	118.5338159514949	0	0	70.89269970239293	-12.95727438882068	25.0910448174345	59.66064679648277	47.77583647906749	0	0
12.79999999999982	-2.414263484046594	0.3281522726952362	40.31966911104869	0	0.9399999999999999	0	32.90834113816145	-9.606035256495087	-9.021195144819915	37.72032091917752	0.6583437949485417	0	0	0	32.90834113816145	-9.606035256495087	-9.021195144819915	37.72032091917752	0.6583437949485417	0	0	0	-2.115237916929928	1.994579322871683	-0.6803224235420968	7.626528886937059	-9.056145504554721	-5.915775059911997	6.134757982350757	118.4412142557831	0	0	67.67828944923579	-13.79366296368888	24.59470923436623	60.75913525800321	49.42357122405933	0	0
12.81999999999982	-2.326614877548385	0.3100125124812896	40.8245365742114	0	0.9399999999999999	0	32.91722707589244	-9.607021714518327	-9.022767207145654	37.7292143350906	0.6584990143379741	0	0	0	32.91722707589244	-9.607021714518327	-9.022767207145654	37.7292143350906	0.6584990143379741	0	0	0	-2.061403723568425	1.927797707947546	-0.9028640795754381	7.641097971511429	-9.025663549348087	-5.971915521422188	6.702733192662722	118.6618373086667	0	0	64.16568254759262	-14.29824078189174	23.79547629443455	59.86980871280904	51.9527544552442	0	0
12.83999999999982	-2.215380770793371	0.299330569131155	41.28719433150858	0	0.9399999999999999	0	32.92544386593806	-9.607932070340672	-9.024219411784918	37.73744193060683	0.6586426129692546	0	0	0	32.92544386593806	-9.607932070340672	-9.024219411784918	37.73744193060683	0.6586426129692546	0	0	0	-1.985105687279263	1.853997156531876	-1.14213097917931	7.599510816521405	-8.933778647341367	-5.930849591039541	6.804913435304826	118.719419250252	0	0	60.64225420920106	-14.75927079899828	22.88457263344716	58.63009164537245	54.39721718994495	0	0
12.85999999999981	-2.109354147143994	0.2820317848064001	41.70544124706475	0	0.9399999999999999	0	32.93456234975206	-9.608937167360958	-9.02582612606796	37.7466015766941	0.658802478951795	0	0	0	32.93456234975206	-9.608937167360958	-9.02582612606796	37.7466015766941	0.658802478951795	0	0	0	-1.915110866117897	1.782805630499146	-1.348197365741722	7.526889184797964	-8.811629889980955	-5.844282539558769	6.877638350325054	118.8013266878584	0	0	60.35237088776285	-14.29472738384703	23.02859629899186	54.41754102692134	55.7445911492779	0	0
12.87999999999981	-2.01734350836301	0.2643357530853964	42.19227362051578	0	0.9399999999999999	0	32.9416750804118	-9.609722114489037	-9.027080698951416	37.75373013681528	0.6589268957968358	0	0	0	32.9416750804118	-9.609722114489037	-9.027080698951416	37.75373013681528	0.6589268957968358	0	0	0	-1.860744170832624	1.726437842565028	-1.609019673400823	7.505434115927768	-8.67928529985517	-5.709158797614406	6.843961983618966	118.8580745799413	0	0	56.72300989039105	-14.58036883471823	21.79164984454229	52.65636146169157	58.97688118946314	0	0
12.89999999999981	-1.953854440709183	0.2604655389882768	42.87077868561511	0	0.9399999999999999	0	32.9636092581913	-9.612129560690644	-9.030939685040444	37.77571704429375	0.6593106397246665	0	0	0	32.9636092581913	-9.612129560690644	-9.030939685040444	37.77571704429375	0.6593106397246665	0	0	0	-1.824900712880408	1.685813447532972	-2.144213665667342	7.521514159883686	-8.55798593655795	-5.415790186343736	6.754852666462194	118.9158761003128	0	0	50.17922873376094	-15.03077554722469	18.93517953632077	50.24622699049716	63.58625177330935	0	0
12.91999999999981	-1.852449691342837	0.2523949893469229	43.35717680608058	0	0.9399999999999999	0	32.97221274394311	-9.613074824348766	-9.032454303643339	37.78433429643308	0.6594610391469724	0	0	0	32.97221274394311	-9.613074824348766	-9.032454303643339	37.78433429643308	0.6594610391469724	0	0	0	-1.755518825693233	1.613329221685301	-2.330683339126434	7.405650445629513	-8.40761289081985	-5.250188884491663	6.648199084111544	118.9201741668903	0	0	47.06347464949503	-15.06410304086812	17.86293311543298	48.09089827038706	64.29849716663975	0	0
12.93999999999981	-1.705628079043274	0.2215371752772582	43.96832293759734	0	0.9399999999999999	0	32.98164741672884	-9.614109925065932	-9.034114200846798	37.79378282182446	0.6596259470245104	0	0	0	32.98164741672884	-9.614109925065932	-9.034114200846798	37.79378282182446	0.6596259470245104	0	0	0	-1.668288648725939	1.480921931324909	-2.418755297428528	7.206628751656932	-8.132138063677813	-5.303150946326476	6.511237586560653	119.0162098738169	0	0	44.09203753764866	-14.7675603270335	16.91365304419176	45.63936493413694	66.27069091871047	0	0
12.95999999999981	-1.663555743132344	0.2034072912146689	44.38696632735525	0	0.9399999999999999	0	32.98861350529391	-9.614871300846321	-9.035337114633174	37.80077393697534	0.6597479650022792	0	0	0	32.98861350529391	-9.614871300846321	-9.035337114633174	37.80077393697534	0.6597479650022792	0	0	0	-1.654273251595761	1.463699188439185	-2.67262516546928	7.252721184449589	-8.017901424558461	-4.928174869814236	6.396496023132793	118.473360947116	0	0	41.146111712247	-14.2892956839362	15.25875537288556	42.84684359067248	69.76568434931288	0	0
12.97999999999981	-1.583732913922421	0.1644075881769374	44.88381965319919	0	0.9399999999999999	0	32.99696920448277	-9.6157839610089	-9.036803714855891	37.80915474863534	0.6598942377597358	0	0	0	32.99696920448277	-9.6157839610089	-9.036803714855891	37.80915474863534	0.6598942377597358	0	0	0	-1.623426175090302	1.375288168871602	-2.761219641607698	7.130400213354002	-7.870116873737728	-5.370939748823782	6.347050805470864	119.1813751322487	0	0	38.44825174197138	-13.69567541165874	14.15792900906426	39.99144661445954	72.13048377262271	0	0
12.99999999999981	-1.507380449739063	0.1410705736880339	45.36714953750968	0	0.9399999999999999	0	33.00475927533309	-9.616633862896283	-9.038170373993445	37.81696655162582	0.6600305794424368	0	0	0	33.00475927533309	-9.616633862896283	-9.038170373993445	37.81696655162582	0.6600305794424368	0	0	0	-1.587099071853016	1.311243872460747	-2.862443054651302	7.106868630414538	-7.653122360889656	-5.165171613678211	6.193707354548515	119.2935193262388	0	0	35.90045442671995	-13.2741184337079	13.47334031041325	37.44400601571611	73.84062221565439	0	0
13.01999999999981	-1.457229058191457	0.1004335667134613	45.80105483568467	0	0.9399999999999999	0	33.01390754142844	-9.617630622565017	-9.039774369801043	37.82613927451028	0.6601906736581434	0	0	0	33.01390754142844	-9.617630622565017	-9.039774369801043	37.82613927451028	0.6601906736581434	0	0	0	-1.579341898980206	1.238933267809005	-2.92645139241088	7.130611712278568	-7.455761037766083	-4.982950548102224	6.111307510186224	119.4143479233662	0	0	33.56768300950933	-12.84666753281032	13.14779501935535	34.91951503114856	75.62500704503248	0	0
13.03999999999981	-1.39006255891403	0.05061450235897541	46.21951519201919	0	0.9399999999999999	0	33.01889590099259	-9.618171514732207	-9.040646456789348	37.83115749833259	0.6602782581864449	0	0	0	33.01889590099259	-9.618171514732207	-9.040646456789348	37.83115749833259	0.6602782581864449	0	0	0	-1.568204041369703	1.149004054730332	-2.873736456951922	7.109073242038804	-7.279298827545214	-4.989256774371166	6.127671687053767	119.5350517311938	0	0	31.31701106292827	-12.52717524207705	13.45607329845985	34.77692727257947	76.26076802756637	0	0
13.05999999999981	-1.356453796132005	0.00939089460257316	46.49819703985311	0	0.9399999999999999	0	33.02553915888294	-9.618891893470002	-9.041808122231098	37.83783417338913	0.6603947881492672	0	0	0	33.02553915888294	-9.618891893470002	-9.041808122231098	37.83783417338913	0.6603947881492672	0	0	0	-1.574601264681474	1.088923819383435	-2.864390235527603	7.148271910517832	-7.162814658840741	-4.937194203648377	6.269318254944538	119.6745729495914	0	0	29.07620364562135	-12.030247552268	13.55566008215362	32.48621810635472	77.5803547061783	0	0
13.07999999999981	-1.335505716409051	-0.02359995563915926	46.77602684424756	0	0.9399999999999999	0	33.03187845807924	-9.619578097147389	-9.042915600648207	37.84420907734054	0.6605060512127179	0	0	0	33.03187845807924	-9.619578097147389	-9.042915600648207	37.84420907734054	0.6605060512127179	0	0	0	-1.583845245438742	1.043885129146663	-2.839965594055073	7.244011006731015	-7.131179721203689	-4.821278115139555	6.374537888902473	119.6474263114297	0	0	26.84314398071015	-11.41037202050885	13.64082560821038	30.34247586674514	79.23485418884528	0	0
